<svg width="62" height="64" viewBox="0 0 62 64" fill="none" xmlns="http://www.w3.org/2000/svg">
<path fill-rule="evenodd" clip-rule="evenodd" d="M37.1131 3.37033L37.4161 3.67094L34.5172 0.774468L33.7444 0.00234077L33.7421 0L33.7451 0.00234105L34.5172 0.774468L37.1131 3.37033ZM28.2501 0L24.8815 3.36864L28.2518 0.00234105L28.2501 0Z" fill="white"/>
<path fill-rule="evenodd" clip-rule="evenodd" d="M51.6274 43.6487C51.6274 42.2182 52.1956 40.8462 53.2072 39.8347L61.139 31.9029L57.8864 28.6502C56.8748 27.6387 55.5029 27.0704 54.0724 27.0704H48.8509L47.5798 28.3403V7.3367L43.9915 3.74849H39.3274L37.4161 5.65816V3.67094L37.1131 3.37033L34.5172 0.774468L33.7444 0.00234077L30.9973 0.00117039L28.2518 0.00234105L24.8815 3.36864L24.5726 3.67733V5.64147L22.6792 3.74776L18.0051 3.74288L14.4124 7.3367V28.3603L13.1257 27.0738L7.91972 27.0721C6.48806 27.0717 5.11495 27.6404 4.10291 28.653L0.861084 31.8968L8.78771 39.8346C9.79759 40.8459 10.3648 42.2167 10.3648 43.6459V51.5182L21.2668 62.4202C22.2784 63.4317 23.6503 64 25.0808 64H36.9114C38.3419 64 39.7138 63.4317 40.7254 62.4202L51.6274 51.5182V43.6487ZM57.3553 31.8992L50.5345 38.7203C49.5225 39.7322 48.9543 41.1048 48.9547 42.5359L48.9572 50.4031L39.6017 59.7594C38.5901 60.7711 37.2181 61.3394 35.7875 61.3394H26.2325C24.8021 61.3394 23.4303 60.7712 22.4188 59.7598L13.0421 50.3841V42.5299C13.0421 41.1003 12.4745 39.7291 11.464 38.7177L4.65126 31.8987L5.23238 31.318C6.24437 30.3068 7.61661 29.7391 9.04721 29.7397L10.8081 29.7405C12.2385 29.7411 13.6101 30.3099 14.6211 31.3218L17.0907 33.7932V9.8835C17.0907 8.96521 17.4554 8.08453 18.1048 7.4352C18.7541 6.78587 19.6348 6.42108 20.5531 6.42108H22.5427L24.5719 8.45086V29.8019L27.2537 27.1219V6.27704C27.2537 5.32353 27.6324 4.40905 28.3064 3.73467C28.9809 3.05988 29.8959 2.68076 30.85 2.68076H31.1447C32.0987 2.68076 33.0137 3.05983 33.6882 3.73456C34.3624 4.40901 34.7412 5.32363 34.7412 6.2773V27.0962L37.417 29.7684V8.46218L39.4488 6.43062H41.4625C42.3744 6.43062 43.2488 6.79296 43.8934 7.43789C44.5375 8.08238 44.8994 8.95628 44.8994 9.86748V33.8055L47.4772 31.281C48.4853 30.2938 49.8401 29.7409 51.2511 29.7409H52.9642C54.3968 29.7409 55.7707 30.3109 56.7826 31.3251L57.3553 31.8992Z" fill="white"/>
<path fill-rule="evenodd" clip-rule="evenodd" d="M15.3869 45.77L21.6633 52.0648C26.8154 57.2321 35.1847 57.2321 40.3368 52.0648L46.6131 45.77L42.0182 41.1751C35.933 35.0899 26.067 35.0899 19.9819 41.1751L15.3869 45.77ZM41.1706 44.0976L42.8369 45.7639L38.6392 49.974C34.4238 54.2018 27.5762 54.2018 23.3608 49.974L19.1631 45.7639L20.8294 44.0976C22.2454 42.6816 23.8832 41.6226 25.6309 40.9205C25.0521 41.8713 24.7187 42.9879 24.7187 44.1824C24.7187 47.6515 27.5309 50.4638 31 50.4638C34.4691 50.4638 37.2814 47.6515 37.2814 44.1824C37.2814 42.9879 36.948 41.8713 36.3692 40.9205C38.1169 41.6226 39.7546 42.6817 41.1706 44.0976Z" fill="white"/>
</svg>
